<svg xmlns="http://www.w3.org/2000/svg" id="SVGRoot" width="250px" height="230px" viewBox="0 0 250 230"><path d="m61.845 38.614c-34.416 0.38801-62.071 32.324-61.843 71.417 0.22791 39.093 28.253 70.61 62.67 70.481 11.056-0.043 21.904-3.4182 31.436-9.781v47.802c0 6.3944 4.9721 11.542 11.148 11.542h8.5195c6.1763 0 11.149-5.1477 11.149-11.542v-98.369c0-1.0176-0.12737-2.0034-0.36397-2.9421 0.24453-2.5442 0.36775-5.1015 0.36888-7.6607l-4e-3 -0.94004c-0.45623-39.089-28.664-70.395-63.079-70.007zm3.981 31.318c16.183 1.0433 29.005 17.866 29.575 42.019l0.0023 0.56402c-0.5212 28.59-11.111 40.998-32.425 41.076-17.925 0.0654-32.521-17.333-32.64-40.794-0.44557-23.8 13.427-41.617 32.209-42.861 1.1061-0.07295 2.1998-0.0737 3.2787-0.0035z"></path><path d="m188.27 191.38c34.415-0.44964 62.017-32.435 61.724-71.528-0.29329-39.092-28.371-70.56-62.788-70.368-11.056 0.06274-21.898 3.4574-31.419 9.8373l-0.0801-47.802c-0.0113-6.3944-4.9914-11.533-11.168-11.522l-8.5195 0.015118c-6.1763 0.011339-11.14 5.1677-11.13 11.562l0.16479 98.369c1e-3 1.0176 0.13077 2.0032 0.36888 2.9414-0.24 2.5446-0.35906 5.1021-0.35603 7.6614l8e-3 0.94001c0.5215 39.089 28.782 70.344 63.196 69.894zm-4.0333-31.311c-16.185-1.0142-29.034-17.814-29.645-41.966l-4e-3 -0.56398c0.47395-28.59 11.04-41.018 32.354-41.134 17.925-0.09751 32.553 17.274 32.711 40.735 0.4853 23.799-13.358 41.641-32.137 42.918-1.106 0.0752-2.1998 0.078-3.2787 0.0106z" fill="#66cff5"></path></svg>