<svg xmlns="http://www.w3.org/2000/svg" xmlns:xlink="http://www.w3.org/1999/xlink" width="1056" zoomAndPan="magnify" viewBox="0 0 792 329.999987" height="440" preserveAspectRatio="xMidYMid meet" version="1.0"><defs><clipPath id="39eb2a18ff"><path d="M 5.660156 34 L 90.550781 34 L 90.550781 155.828125 L 5.660156 155.828125 Z M 5.660156 34 " clip-rule="nonzero"/></clipPath><clipPath id="407c00c396"><path d="M 48.8125 107.101562 C 46.074219 106.964844 43.773438 106.65625 41.960938 106.179688 C 32.410156 102.074219 27.773438 94.007812 27.773438 81.527344 C 27.773438 77.859375 28.21875 73.710938 29.09375 69.195312 C 32.398438 58.90625 38.324219 54.121094 47.726562 54.121094 C 50.121094 54.121094 52.949219 54.550781 56.148438 55.417969 C 64.9375 59.613281 69.210938 67.875 69.210938 80.648438 L 69.210938 80.96875 C 69.210938 84.058594 68.867188 87.292969 68.195312 90.597656 C 64.867188 101.859375 58.632812 107.101562 48.800781 107.101562 M 75.878906 44.445312 L 75.546875 44.160156 C 68.015625 38.371094 60.058594 35.097656 51.886719 34.449219 L 44.195312 34.4375 C 38.53125 34.4375 32.386719 36.054688 25.925781 39.257812 L 25.449219 39.53125 C 12.34375 48.511719 5.699219 61.449219 5.699219 77.996094 L 5.699219 82.722656 C 5.699219 87.125 6.449219 92.046875 8 97.5625 C 14.722656 116.980469 27.714844 126.828125 46.726562 126.828125 C 56.105469 126.53125 63.433594 124.515625 68.640625 120.824219 L 68.640625 152.914062 L 71.511719 155.785156 L 87.214844 155.785156 L 90.089844 152.914062 L 90.089844 82.40625 C 90.089844 66.289062 85.3125 53.515625 75.886719 44.445312 " clip-rule="nonzero"/></clipPath><clipPath id="ebbead0144"><path d="M 0.660156 0.320312 L 85.238281 0.320312 L 85.238281 121.828125 L 0.660156 121.828125 Z M 0.660156 0.320312 " clip-rule="nonzero"/></clipPath><clipPath id="8b6587cca7"><path d="M 43.8125 73.101562 C 41.074219 72.964844 38.773438 72.65625 36.960938 72.179688 C 27.410156 68.074219 22.773438 60.007812 22.773438 47.527344 C 22.773438 43.859375 23.21875 39.710938 24.09375 35.195312 C 27.398438 24.90625 33.324219 20.121094 42.726562 20.121094 C 45.121094 20.121094 47.949219 20.550781 51.148438 21.417969 C 59.9375 25.613281 64.210938 33.875 64.210938 46.648438 L 64.210938 46.96875 C 64.210938 50.058594 63.867188 53.292969 63.195312 56.597656 C 59.867188 67.859375 53.632812 73.101562 43.800781 73.101562 M 70.878906 10.445312 L 70.546875 10.160156 C 63.015625 4.371094 55.058594 1.097656 46.886719 0.449219 L 39.195312 0.4375 C 33.53125 0.4375 27.386719 2.054688 20.925781 5.257812 L 20.449219 5.53125 C 7.34375 14.511719 0.699219 27.449219 0.699219 43.996094 L 0.699219 48.722656 C 0.699219 53.125 1.449219 58.046875 3 63.5625 C 9.722656 82.980469 22.714844 92.828125 41.726562 92.828125 C 51.105469 92.53125 58.433594 90.515625 63.640625 86.824219 L 63.640625 118.914062 L 66.511719 121.785156 L 82.214844 121.785156 L 85.089844 118.914062 L 85.089844 48.40625 C 85.089844 32.289062 80.3125 19.515625 70.886719 10.445312 " clip-rule="nonzero"/></clipPath><clipPath id="45d87e1386"><rect x="0" width="86" y="0" height="122"/></clipPath><clipPath id="8154ff9f79"><path d="M 93.066406 34.46875 L 167.894531 34.46875 L 167.894531 125 L 93.066406 125 Z M 93.066406 34.46875 " clip-rule="nonzero"/></clipPath><clipPath id="cf1a854e14"><path d="M 164.964844 34.835938 L 149.351562 34.835938 L 146.476562 37.707031 L 146.476562 81.152344 L 145.875 90.109375 C 143.183594 100.273438 137.507812 105.003906 128.050781 105.003906 L 125.40625 105.003906 C 124.140625 105.003906 122.96875 104.800781 121.792969 104.367188 L 121.53125 104.273438 C 118.476562 103.386719 114.429688 100.957031 114.429688 90.097656 L 114.429688 37.558594 L 111.332031 34.847656 L 96.175781 34.847656 L 93.300781 37.71875 L 93.300781 91.304688 C 93.300781 96.117188 93.734375 100.546875 94.589844 104.492188 L 94.679688 104.84375 C 98.761719 117.769531 108.378906 124.59375 122.5 124.59375 L 124.503906 124.59375 C 140.402344 124.59375 151.972656 119.910156 158.910156 110.679688 C 164.90625 104.832031 167.824219 92.925781 167.824219 74.300781 L 167.824219 37.707031 Z M 164.964844 34.835938 " clip-rule="nonzero"/></clipPath><clipPath id="bad9e0dfe9"><path d="M 0.121094 0.800781 L 74.894531 0.800781 L 74.894531 90.800781 L 0.121094 90.800781 Z M 0.121094 0.800781 " clip-rule="nonzero"/></clipPath><clipPath id="e630759585"><path d="M 71.964844 0.835938 L 56.351562 0.835938 L 53.476562 3.707031 L 53.476562 47.152344 L 52.875 56.109375 C 50.183594 66.273438 44.507812 71.003906 35.050781 71.003906 L 32.40625 71.003906 C 31.140625 71.003906 29.96875 70.800781 28.792969 70.367188 L 28.53125 70.273438 C 25.476562 69.386719 21.429688 66.957031 21.429688 56.097656 L 21.429688 3.558594 L 18.332031 0.847656 L 3.175781 0.847656 L 0.300781 3.71875 L 0.300781 57.304688 C 0.300781 62.117188 0.734375 66.546875 1.589844 70.492188 L 1.679688 70.84375 C 5.761719 83.769531 15.378906 90.59375 29.5 90.59375 L 31.503906 90.59375 C 47.402344 90.59375 58.972656 85.910156 65.910156 76.679688 C 71.90625 70.832031 74.824219 58.925781 74.824219 40.300781 L 74.824219 3.707031 Z M 71.964844 0.835938 " clip-rule="nonzero"/></clipPath><clipPath id="cdbfc5a612"><rect x="0" width="75" y="0" height="91"/></clipPath><clipPath id="2d39ec09a6"><path d="M 167.265625 34.46875 L 241.46875 34.46875 L 241.46875 125 L 167.265625 125 Z M 167.265625 34.46875 " clip-rule="nonzero"/></clipPath><clipPath id="ef45acebf6"><path d="M 219.972656 84.671875 L 219.972656 91.945312 L 219.277344 95.363281 C 215.8125 102.007812 209.660156 105.242188 200.714844 105.242188 L 196.507812 105.027344 C 189.292969 103.226562 189.292969 99.660156 189.292969 98.109375 C 189.292969 94.1875 190.535156 89.492188 200.121094 87.988281 C 210.058594 86.746094 216.144531 85.652344 219.984375 84.660156 M 239.941406 51.964844 C 236.203125 40.707031 226.308594 34.984375 210.539062 34.984375 L 205.328125 34.984375 L 205.03125 34.996094 C 192.621094 35.917969 187.4375 37.070312 187.4375 41.8125 L 187.4375 55.648438 L 190.730469 60.078125 L 193.863281 57.890625 C 197.28125 55.511719 201.429688 54.347656 206.527344 54.347656 C 220.304688 54.347656 220.304688 60.351562 220.304688 62.917969 C 220.304688 64.660156 219.960938 65.253906 220.007812 65.253906 L 217.980469 66.371094 L 217.980469 66.917969 C 216.269531 67.542969 211.824219 68.730469 200.578125 70.164062 C 173.394531 73.574219 167.699219 86.597656 167.699219 96.925781 L 167.699219 100.9375 C 167.699219 103.023438 168.132812 105.378906 169.007812 108.148438 L 169.109375 108.433594 C 173.441406 119.171875 182.84375 124.605469 197.066406 124.605469 C 201.863281 124.605469 207.140625 123.773438 212.886719 122.085938 C 231.550781 116.023438 241.023438 103.351562 241.023438 84.421875 L 241.023438 59.785156 C 241.023438 56.945312 240.667969 54.347656 239.941406 51.964844 " clip-rule="nonzero"/></clipPath><clipPath id="8616fa5935"><path d="M 0.519531 0.800781 L 74.199219 0.800781 L 74.199219 90.800781 L 0.519531 90.800781 Z M 0.519531 0.800781 " clip-rule="nonzero"/></clipPath><clipPath id="c76e1bf2d5"><path d="M 52.972656 50.671875 L 52.972656 57.945312 L 52.277344 61.363281 C 48.8125 68.007812 42.660156 71.242188 33.714844 71.242188 L 29.507812 71.027344 C 22.292969 69.226562 22.292969 65.660156 22.292969 64.109375 C 22.292969 60.1875 23.535156 55.492188 33.121094 53.988281 C 43.058594 52.746094 49.144531 51.652344 52.984375 50.660156 M 72.941406 17.964844 C 69.203125 6.707031 59.308594 0.984375 43.539062 0.984375 L 38.328125 0.984375 L 38.03125 0.996094 C 25.621094 1.917969 20.4375 3.070312 20.4375 7.8125 L 20.4375 21.648438 L 23.730469 26.078125 L 26.863281 23.890625 C 30.28125 21.511719 34.429688 20.347656 39.527344 20.347656 C 53.304688 20.347656 53.304688 26.351562 53.304688 28.917969 C 53.304688 30.660156 52.960938 31.253906 53.007812 31.253906 L 50.980469 32.371094 L 50.980469 32.917969 C 49.269531 33.542969 44.824219 34.730469 33.578125 36.164062 C 6.394531 39.574219 0.699219 52.597656 0.699219 62.925781 L 0.699219 66.9375 C 0.699219 69.023438 1.132812 71.378906 2.007812 74.148438 L 2.109375 74.433594 C 6.441406 85.171875 15.84375 90.605469 30.066406 90.605469 C 34.863281 90.605469 40.140625 89.773438 45.886719 88.085938 C 64.550781 82.023438 74.023438 69.351562 74.023438 50.421875 L 74.023438 25.785156 C 74.023438 22.945312 73.667969 20.347656 72.941406 17.964844 " clip-rule="nonzero"/></clipPath><clipPath id="9500c4f51e"><rect x="0" width="75" y="0" height="91"/></clipPath><clipPath id="764084d2f7"><path d="M 245.242188 6.171875 L 328.246094 6.171875 L 328.246094 125 L 245.242188 125 Z M 245.242188 6.171875 " clip-rule="nonzero"/></clipPath><clipPath id="565d5d1237"><path d="M 307.429688 79.191406 L 307.429688 79.511719 C 307.429688 83.476562 306.894531 87.25 305.902344 90.496094 C 301.148438 103.421875 293.925781 104.914062 288.910156 104.914062 L 286.265625 104.914062 C 284.75 104.914062 282.6875 104.605469 280.144531 104 C 271.429688 99.714844 267.1875 91.988281 267.1875 80.386719 C 267.1875 76.605469 267.554688 73.128906 268.28125 70.085938 C 270.960938 58.964844 276.671875 53.777344 286.265625 53.777344 L 287.144531 53.777344 C 290.265625 53.777344 292.785156 54.234375 294.769531 55.203125 C 303.28125 58.984375 307.429688 66.828125 307.429688 79.191406 M 327.898438 79.511719 L 327.898438 9.082031 L 325.035156 6.207031 L 309.878906 6.207031 L 306.792969 8.921875 L 306.792969 40.773438 C 297.457031 33.824219 284.945312 32.054688 270.414062 36.625 L 269.902344 36.832031 C 253.730469 44.570312 245.523438 58.140625 245.523438 77.195312 L 245.523438 81.527344 C 245.523438 84.398438 245.84375 87.476562 246.503906 90.734375 C 251.585938 113.210938 265.261719 124.605469 287.15625 124.605469 L 287.347656 124.605469 L 293.378906 124.015625 C 302.664062 122.953125 311.292969 118.625 319.007812 111.136719 L 319.476562 110.601562 C 325.289062 102.472656 328.226562 93.847656 328.214844 84.742188 Z M 327.898438 79.511719 " clip-rule="nonzero"/></clipPath><clipPath id="1e1dbf703b"><path d="M 0.519531 0.171875 L 83.246094 0.171875 L 83.246094 118.800781 L 0.519531 118.800781 Z M 0.519531 0.171875 " clip-rule="nonzero"/></clipPath><clipPath id="73907481fe"><path d="M 62.429688 73.191406 L 62.429688 73.511719 C 62.429688 77.476562 61.894531 81.25 60.902344 84.496094 C 56.148438 97.421875 48.925781 98.914062 43.910156 98.914062 L 41.265625 98.914062 C 39.75 98.914062 37.6875 98.605469 35.144531 98 C 26.429688 93.714844 22.1875 85.988281 22.1875 74.386719 C 22.1875 70.605469 22.554688 67.128906 23.28125 64.085938 C 25.960938 52.964844 31.671875 47.777344 41.265625 47.777344 L 42.144531 47.777344 C 45.265625 47.777344 47.785156 48.234375 49.769531 49.203125 C 58.28125 52.984375 62.429688 60.828125 62.429688 73.191406 M 82.898438 73.511719 L 82.898438 3.082031 L 80.035156 0.207031 L 64.878906 0.207031 L 61.792969 2.921875 L 61.792969 34.773438 C 52.457031 27.824219 39.945312 26.054688 25.414062 30.625 L 24.902344 30.832031 C 8.730469 38.570312 0.523438 52.140625 0.523438 71.195312 L 0.523438 75.527344 C 0.523438 78.398438 0.84375 81.476562 1.503906 84.734375 C 6.585938 107.210938 20.261719 118.605469 42.15625 118.605469 L 42.347656 118.605469 L 48.378906 118.015625 C 57.664062 116.953125 66.292969 112.625 74.007812 105.136719 L 74.476562 104.601562 C 80.289062 96.472656 83.226562 87.847656 83.214844 78.742188 Z M 82.898438 73.511719 " clip-rule="nonzero"/></clipPath><clipPath id="2a2bbf9135"><rect x="0" width="84" y="0" height="119"/></clipPath><clipPath id="ceb2b16011"><path d="M 332 34 L 382.324219 34 L 382.324219 125 L 332 125 Z M 332 34 " clip-rule="nonzero"/></clipPath><clipPath id="b29ca46e2e"><path d="M 379.125 34.4375 L 373.550781 34.4375 C 365.765625 34.4375 358.222656 36.726562 351.28125 41.148438 C 338.496094 48.613281 332 64.375 332 88.023438 L 332 121.734375 L 334.871094 124.605469 L 350.246094 124.605469 L 353.117188 121.734375 L 353.117188 88.011719 C 353.117188 82.964844 353.402344 78.40625 353.925781 74.632812 C 356.296875 62.210938 363.761719 56.421875 377.402344 56.421875 C 380.527344 56.421875 382.222656 54.109375 382.222656 51.917969 L 382.222656 37.148438 Z M 379.125 34.4375 " clip-rule="nonzero"/></clipPath><clipPath id="e7a11460ac"><path d="M 0 0.320312 L 50.320312 0.320312 L 50.320312 90.800781 L 0 90.800781 Z M 0 0.320312 " clip-rule="nonzero"/></clipPath><clipPath id="64f814de75"><path d="M 47.125 0.4375 L 41.550781 0.4375 C 33.765625 0.4375 26.222656 2.726562 19.28125 7.148438 C 6.496094 14.613281 0 30.375 0 54.023438 L 0 87.734375 L 2.871094 90.605469 L 18.246094 90.605469 L 21.117188 87.734375 L 21.117188 54.011719 C 21.117188 48.964844 21.402344 44.40625 21.925781 40.632812 C 24.296875 28.210938 31.761719 22.421875 45.402344 22.421875 C 48.527344 22.421875 50.222656 20.109375 50.222656 17.917969 L 50.222656 3.148438 Z M 47.125 0.4375 " clip-rule="nonzero"/></clipPath><clipPath id="662bbcadfd"><rect x="0" width="51" y="0" height="91"/></clipPath><clipPath id="650aca0c96"><path d="M 382.324219 34.46875 L 455.898438 34.46875 L 455.898438 125 L 382.324219 125 Z M 382.324219 34.46875 " clip-rule="nonzero"/></clipPath><clipPath id="c0dcb5f2f1"><path d="M 434.613281 84.671875 L 434.613281 91.945312 L 433.917969 95.363281 C 430.453125 102.007812 424.300781 105.242188 415.34375 105.242188 L 411.136719 105.027344 C 403.921875 103.226562 403.921875 99.660156 403.921875 98.109375 C 403.921875 94.1875 405.164062 89.492188 414.75 87.988281 C 424.6875 86.746094 430.773438 85.652344 434.613281 84.660156 M 454.566406 51.964844 C 450.832031 40.707031 440.9375 34.984375 425.164062 34.984375 L 419.957031 34.984375 L 419.660156 34.996094 C 407.25 35.917969 402.066406 37.070312 402.066406 41.8125 L 402.066406 55.648438 L 405.359375 60.078125 L 408.492188 57.890625 C 411.910156 55.511719 416.058594 54.347656 421.152344 54.347656 C 434.933594 54.347656 434.933594 60.351562 434.933594 62.917969 C 434.933594 64.660156 434.589844 65.253906 434.636719 65.253906 L 432.609375 66.371094 L 432.609375 66.917969 C 430.898438 67.542969 426.453125 68.730469 415.207031 70.164062 C 388.023438 73.574219 382.328125 86.597656 382.328125 96.925781 L 382.328125 100.9375 C 382.328125 103.023438 382.757812 105.378906 383.636719 108.148438 L 383.738281 108.433594 C 388.070312 119.171875 397.472656 124.605469 411.683594 124.605469 C 416.480469 124.605469 421.757812 123.773438 427.5 122.085938 C 446.179688 116.023438 455.640625 103.351562 455.640625 84.421875 L 455.640625 59.785156 C 455.640625 56.945312 455.285156 54.347656 454.558594 51.964844 " clip-rule="nonzero"/></clipPath><clipPath id="e33de901d9"><path d="M 0.324219 0.800781 L 73.761719 0.800781 L 73.761719 90.800781 L 0.324219 90.800781 Z M 0.324219 0.800781 " clip-rule="nonzero"/></clipPath><clipPath id="7b7773b4b1"><path d="M 52.613281 50.671875 L 52.613281 57.945312 L 51.917969 61.363281 C 48.453125 68.007812 42.300781 71.242188 33.34375 71.242188 L 29.136719 71.027344 C 21.921875 69.226562 21.921875 65.660156 21.921875 64.109375 C 21.921875 60.1875 23.164062 55.492188 32.75 53.988281 C 42.6875 52.746094 48.773438 51.652344 52.613281 50.660156 M 72.566406 17.964844 C 68.832031 6.707031 58.9375 0.984375 43.164062 0.984375 L 37.957031 0.984375 L 37.660156 0.996094 C 25.25 1.917969 20.066406 3.070312 20.066406 7.8125 L 20.066406 21.648438 L 23.359375 26.078125 L 26.492188 23.890625 C 29.910156 21.511719 34.058594 20.347656 39.152344 20.347656 C 52.933594 20.347656 52.933594 26.351562 52.933594 28.917969 C 52.933594 30.660156 52.589844 31.253906 52.636719 31.253906 L 50.609375 32.371094 L 50.609375 32.917969 C 48.898438 33.542969 44.453125 34.730469 33.207031 36.164062 C 6.023438 39.574219 0.328125 52.597656 0.328125 62.925781 L 0.328125 66.9375 C 0.328125 69.023438 0.757812 71.378906 1.636719 74.148438 L 1.738281 74.433594 C 6.070312 85.171875 15.472656 90.605469 29.683594 90.605469 C 34.480469 90.605469 39.757812 89.773438 45.5 88.085938 C 64.179688 82.023438 73.640625 69.351562 73.640625 50.421875 L 73.640625 25.785156 C 73.640625 22.945312 73.285156 20.347656 72.558594 17.964844 " clip-rule="nonzero"/></clipPath><clipPath id="3ae143d91a"><rect x="0" width="74" y="0" height="91"/></clipPath><clipPath id="3f2b6e1570"><path d="M 461 34 L 482.9375 34 L 482.9375 125 L 461 125 Z M 461 34 " clip-rule="nonzero"/></clipPath><clipPath id="ed3bb43b82"><path d="M 464.300781 34.277344 L 461.429688 37.148438 L 461.429688 121.734375 L 464.300781 124.605469 L 479.59375 124.605469 L 482.457031 121.734375 L 482.457031 37.148438 L 479.59375 34.277344 Z M 464.300781 34.277344 " clip-rule="nonzero"/></clipPath><clipPath id="cd4c377d73"><path d="M 0.28125 0.078125 L 21.640625 0.078125 L 21.640625 90.800781 L 0.28125 90.800781 Z M 0.28125 0.078125 " clip-rule="nonzero"/></clipPath><clipPath id="8b3e1abf2e"><path d="M 3.300781 0.277344 L 0.429688 3.148438 L 0.429688 87.734375 L 3.300781 90.605469 L 18.59375 90.605469 L 21.457031 87.734375 L 21.457031 3.148438 L 18.59375 0.277344 Z M 3.300781 0.277344 " clip-rule="nonzero"/></clipPath><clipPath id="3c6b53c322"><rect x="0" width="22" y="0" height="91"/></clipPath><clipPath id="3235ade20e"><path d="M 461 6.171875 L 482.9375 6.171875 L 482.9375 26.292969 L 461 26.292969 Z M 461 6.171875 " clip-rule="nonzero"/></clipPath><clipPath id="02344f75dc"><path d="M 479.605469 6.207031 L 464.300781 6.207031 L 461.429688 9.082031 L 461.429688 23.167969 L 464.300781 26.039062 L 479.59375 26.039062 L 482.457031 23.167969 L 482.457031 9.082031 Z M 479.605469 6.207031 " clip-rule="nonzero"/></clipPath><clipPath id="b058702633"><path d="M 0.28125 0.171875 L 21.640625 0.171875 L 21.640625 20.160156 L 0.28125 20.160156 Z M 0.28125 0.171875 " clip-rule="nonzero"/></clipPath><clipPath id="10cf7316f3"><path d="M 18.605469 0.207031 L 3.300781 0.207031 L 0.429688 3.082031 L 0.429688 17.167969 L 3.300781 20.039062 L 18.59375 20.039062 L 21.457031 17.167969 L 21.457031 3.082031 Z M 18.605469 0.207031 " clip-rule="nonzero"/></clipPath><clipPath id="0473fb2d8e"><rect x="0" width="22" y="0" height="21"/></clipPath><clipPath id="5f9bbc9c4e"><path d="M 489.226562 34 L 614 34 L 614 125 L 489.226562 125 Z M 489.226562 34 " clip-rule="nonzero"/></clipPath><clipPath id="499a110389"><path d="M 611.519531 58.847656 L 611.429688 58.585938 C 605.136719 42.5625 593.992188 34.4375 578.332031 34.4375 L 576.566406 34.4375 C 566.433594 34.4375 558.09375 38.015625 551.710938 45.105469 C 544.988281 38.027344 536.292969 34.4375 525.808594 34.4375 L 524.929688 34.4375 C 517.578125 34.4375 510.742188 36.558594 504.585938 40.730469 L 504.269531 40.96875 C 494.445312 49.207031 489.464844 59.53125 489.464844 71.660156 L 489.464844 121.722656 L 492.335938 124.59375 L 507.550781 124.59375 L 510.421875 121.722656 L 510.421875 76.386719 C 510.421875 72.46875 510.785156 69.105469 511.449219 66.554688 C 513.773438 58.941406 518.332031 55.394531 525.808594 55.394531 C 527.824219 55.394531 529.886719 55.773438 531.9375 56.523438 C 537.957031 59.589844 540.875 65.117188 540.875 73.4375 L 540.875 121.734375 L 543.746094 124.605469 L 559.519531 124.605469 L 562.390625 121.734375 L 562.390625 72.773438 L 562.972656 67.875 C 565.054688 59.464844 569.570312 55.488281 577.183594 55.394531 L 582.914062 56.203125 C 585.617188 56.933594 592.828125 59.363281 592.828125 78.472656 L 592.828125 121.722656 L 595.703125 124.59375 L 610.914062 124.59375 L 613.777344 121.722656 L 613.777344 72.867188 C 613.777344 68.375 613.011719 63.660156 611.519531 58.859375 " clip-rule="nonzero"/></clipPath><clipPath id="9559f4eb0d"><path d="M 0.359375 0.320312 L 124.921875 0.320312 L 124.921875 90.800781 L 0.359375 90.800781 Z M 0.359375 0.320312 " clip-rule="nonzero"/></clipPath><clipPath id="923fe4c7b3"><path d="M 122.519531 24.847656 L 122.429688 24.585938 C 116.136719 8.5625 104.992188 0.4375 89.332031 0.4375 L 87.566406 0.4375 C 77.433594 0.4375 69.09375 4.015625 62.710938 11.105469 C 55.988281 4.027344 47.292969 0.4375 36.808594 0.4375 L 35.929688 0.4375 C 28.578125 0.4375 21.742188 2.558594 15.585938 6.730469 L 15.269531 6.96875 C 5.445312 15.207031 0.464844 25.53125 0.464844 37.660156 L 0.464844 87.722656 L 3.335938 90.59375 L 18.550781 90.59375 L 21.421875 87.722656 L 21.421875 42.386719 C 21.421875 38.46875 21.785156 35.105469 22.449219 32.554688 C 24.773438 24.941406 29.332031 21.394531 36.808594 21.394531 C 38.824219 21.394531 40.886719 21.773438 42.9375 22.523438 C 48.957031 25.589844 51.875 31.117188 51.875 39.4375 L 51.875 87.734375 L 54.746094 90.605469 L 70.519531 90.605469 L 73.390625 87.734375 L 73.390625 38.773438 L 73.972656 33.875 C 76.054688 25.464844 80.570312 21.488281 88.183594 21.394531 L 93.914062 22.203125 C 96.617188 22.933594 103.828125 25.363281 103.828125 44.472656 L 103.828125 87.722656 L 106.703125 90.59375 L 121.914062 90.59375 L 124.777344 87.722656 L 124.777344 38.867188 C 124.777344 34.375 124.011719 29.660156 122.519531 24.859375 " clip-rule="nonzero"/></clipPath><clipPath id="819551fca9"><rect x="0" width="125" y="0" height="91"/></clipPath><clipPath id="4362a70d3a"><path d="M 615 34 L 699.878906 34 L 699.878906 125 L 615 125 Z M 615 34 " clip-rule="nonzero"/></clipPath><clipPath id="2873b611d1"><path d="M 677.871094 78.953125 L 677.871094 80.640625 C 677.871094 84.273438 677.367188 87.636719 676.445312 90.453125 C 672.59375 100.480469 666.667969 105.1875 657.835938 105.242188 C 652.625 104.8125 651.382812 104.195312 651.316406 104.171875 L 650.632812 103.796875 C 641.558594 99.945312 637.148438 92.113281 637.148438 79.839844 L 637.148438 79.523438 C 637.148438 76.375 637.582031 72.796875 638.4375 68.890625 C 642.472656 58.734375 648.59375 53.789062 657.117188 53.789062 C 658.953125 53.789062 661.21875 54.128906 663.863281 54.792969 C 673.289062 58.894531 677.871094 66.804688 677.871094 78.964844 M 695.933594 58.585938 L 695.761719 58.199219 C 687.910156 42.4375 675.679688 34.4375 659.429688 34.4375 L 655.097656 34.4375 C 647.566406 34.4375 640.148438 36.785156 633.058594 41.414062 L 632.820312 41.582031 C 621.308594 50.402344 615.472656 62.382812 615.472656 77.1875 L 615.472656 81.835938 L 616.042969 89.585938 L 616.136719 90.199219 C 621.558594 113.015625 635.53125 124.582031 657.664062 124.582031 C 663.394531 124.582031 668.890625 123.636719 674.007812 121.78125 L 674.246094 121.675781 C 691.238281 114.179688 699.851562 99.988281 699.851562 79.5 C 699.851562 72.648438 698.53125 65.605469 695.921875 58.5625 " clip-rule="nonzero"/></clipPath><clipPath id="aaefc43553"><path d="M 0.359375 0.320312 L 84.878906 0.320312 L 84.878906 90.800781 L 0.359375 90.800781 Z M 0.359375 0.320312 " clip-rule="nonzero"/></clipPath><clipPath id="bedbc78d7b"><path d="M 62.871094 44.953125 L 62.871094 46.640625 C 62.871094 50.273438 62.367188 53.636719 61.445312 56.453125 C 57.59375 66.480469 51.667969 71.1875 42.835938 71.242188 C 37.625 70.8125 36.382812 70.195312 36.316406 70.171875 L 35.632812 69.796875 C 26.558594 65.945312 22.148438 58.113281 22.148438 45.839844 L 22.148438 45.523438 C 22.148438 42.375 22.582031 38.796875 23.4375 34.890625 C 27.472656 24.734375 33.59375 19.789062 42.117188 19.789062 C 43.953125 19.789062 46.21875 20.128906 48.863281 20.792969 C 58.289062 24.894531 62.871094 32.804688 62.871094 44.964844 M 80.933594 24.585938 L 80.761719 24.199219 C 72.910156 8.4375 60.679688 0.4375 44.429688 0.4375 L 40.097656 0.4375 C 32.566406 0.4375 25.148438 2.785156 18.058594 7.414062 L 17.820312 7.582031 C 6.308594 16.402344 0.472656 28.382812 0.472656 43.1875 L 0.472656 47.835938 L 1.042969 55.585938 L 1.136719 56.199219 C 6.558594 79.015625 20.53125 90.582031 42.664062 90.582031 C 48.394531 90.582031 53.890625 89.636719 59.007812 87.78125 L 59.246094 87.675781 C 76.238281 80.179688 84.851562 65.988281 84.851562 45.5 C 84.851562 38.648438 83.53125 31.605469 80.921875 24.5625 " clip-rule="nonzero"/></clipPath><clipPath id="c90d9f77a4"><rect x="0" width="85" y="0" height="91"/></clipPath><clipPath id="7cdbc8e815"><path d="M 704 6.171875 L 786.65625 6.171875 L 786.65625 125 L 704 125 Z M 704 6.171875 " clip-rule="nonzero"/></clipPath><clipPath id="6821b87e4f"><path d="M 764.609375 78.871094 C 764.609375 82.382812 764.164062 86.019531 763.296875 89.5625 C 759.605469 103.398438 751.945312 105.003906 746.5 105.003906 L 743.695312 105.003906 C 742.132812 105.003906 740.082031 104.675781 737.597656 104.023438 C 728.914062 99.851562 724.699219 92.273438 724.699219 80.878906 L 724.699219 78.3125 C 724.699219 75.898438 724.960938 73.480469 725.460938 71.269531 C 729.382812 55.953125 737.746094 54.1875 743.695312 54.1875 L 744.8125 54.1875 C 746.910156 54.1875 749.050781 54.496094 751.171875 55.089844 C 760.207031 59.121094 764.609375 66.90625 764.609375 78.882812 M 783.125 60.855469 C 776.300781 43.382812 763.980469 34.527344 746.5 34.527344 C 737.519531 34.527344 730.328125 36.558594 725.015625 40.570312 L 725.015625 9.652344 L 722.15625 6.777344 L 707.089844 6.777344 L 704.21875 9.652344 L 704.230469 82.585938 L 704.789062 91.410156 L 704.867188 91.957031 C 706.328125 99.042969 709.507812 105.515625 714.292969 111.191406 L 714.78125 111.671875 C 725.085938 120.265625 735.867188 124.617188 746.816406 124.617188 C 752.046875 124.617188 757.621094 123.476562 763.398438 121.222656 L 763.808594 121.039062 C 778.714844 113.175781 786.285156 99.75 786.285156 81.140625 L 786.285156 78.554688 C 786.285156 72.558594 785.234375 66.621094 783.125 60.84375 " clip-rule="nonzero"/></clipPath><clipPath id="b5d181ef1b"><path d="M 0.160156 0.71875 L 82.480469 0.71875 L 82.480469 118.800781 L 0.160156 118.800781 Z M 0.160156 0.71875 " clip-rule="nonzero"/></clipPath><clipPath id="5117b49039"><path d="M 60.609375 72.871094 C 60.609375 76.382812 60.164062 80.019531 59.296875 83.5625 C 55.605469 97.398438 47.945312 99.003906 42.5 99.003906 L 39.695312 99.003906 C 38.132812 99.003906 36.082031 98.675781 33.597656 98.023438 C 24.914062 93.851562 20.699219 86.273438 20.699219 74.878906 L 20.699219 72.3125 C 20.699219 69.898438 20.960938 67.480469 21.460938 65.269531 C 25.382812 49.953125 33.746094 48.1875 39.695312 48.1875 L 40.8125 48.1875 C 42.910156 48.1875 45.050781 48.496094 47.171875 49.089844 C 56.207031 53.121094 60.609375 60.90625 60.609375 72.882812 M 79.125 54.855469 C 72.300781 37.382812 59.980469 28.527344 42.5 28.527344 C 33.519531 28.527344 26.328125 30.558594 21.015625 34.570312 L 21.015625 3.652344 L 18.15625 0.777344 L 3.089844 0.777344 L 0.21875 3.652344 L 0.230469 76.585938 L 0.789062 85.410156 L 0.867188 85.957031 C 2.328125 93.042969 5.507812 99.515625 10.292969 105.191406 L 10.78125 105.671875 C 21.085938 114.265625 31.867188 118.617188 42.816406 118.617188 C 48.046875 118.617188 53.621094 117.476562 59.398438 115.222656 L 59.808594 115.039062 C 74.714844 107.175781 82.285156 93.75 82.285156 75.140625 L 82.285156 72.554688 C 82.285156 66.558594 81.234375 60.621094 79.125 54.84375 " clip-rule="nonzero"/></clipPath><clipPath id="bc68861e2a"><rect x="0" width="83" y="0" height="119"/></clipPath><clipPath id="47a7008b14"><rect x="0" width="792" y="0" height="162"/></clipPath></defs><g transform="matrix(1, 0, 0, 1, 0, 84)"><g clip-path="url(#47a7008b14)"><g clip-path="url(#39eb2a18ff)"><g clip-path="url(#407c00c396)"><g transform="matrix(1, 0, 0, 1, 5, 34)"><g clip-path="url(#45d87e1386)"><g clip-path="url(#ebbead0144)"><g clip-path="url(#8b6587cca7)"><rect x="-293.288" width="1368.576" fill="#101b26" y="-238.119995" height="570.239978" fill-opacity="1"/></g></g></g></g></g></g><g clip-path="url(#8154ff9f79)"><g clip-path="url(#cf1a854e14)"><g transform="matrix(1, 0, 0, 1, 93, 34)"><g clip-path="url(#cdbfc5a612)"><g clip-path="url(#bad9e0dfe9)"><g clip-path="url(#e630759585)"><rect x="-381.288" width="1368.576" fill="#101b26" y="-238.119995" height="570.239978" fill-opacity="1"/></g></g></g></g></g></g><g clip-path="url(#2d39ec09a6)"><g clip-path="url(#ef45acebf6)"><g transform="matrix(1, 0, 0, 1, 167, 34)"><g clip-path="url(#9500c4f51e)"><g clip-path="url(#8616fa5935)"><g clip-path="url(#c76e1bf2d5)"><rect x="-455.288" width="1368.576" fill="#101b26" y="-238.119995" height="570.239978" fill-opacity="1"/></g></g></g></g></g></g><g clip-path="url(#764084d2f7)"><g clip-path="url(#565d5d1237)"><g transform="matrix(1, 0, 0, 1, 245, 6)"><g clip-path="url(#2a2bbf9135)"><g clip-path="url(#1e1dbf703b)"><g clip-path="url(#73907481fe)"><rect x="-533.288" width="1368.576" fill="#101b26" y="-210.119995" height="570.239978" fill-opacity="1"/></g></g></g></g></g></g><g clip-path="url(#ceb2b16011)"><g clip-path="url(#b29ca46e2e)"><g transform="matrix(1, 0, 0, 1, 332, 34)"><g clip-path="url(#662bbcadfd)"><g clip-path="url(#e7a11460ac)"><g clip-path="url(#64f814de75)"><rect x="-620.288" width="1368.576" fill="#101b26" y="-238.119995" height="570.239978" fill-opacity="1"/></g></g></g></g></g></g><g clip-path="url(#650aca0c96)"><g clip-path="url(#c0dcb5f2f1)"><g transform="matrix(1, 0, 0, 1, 382, 34)"><g clip-path="url(#3ae143d91a)"><g clip-path="url(#e33de901d9)"><g clip-path="url(#7b7773b4b1)"><rect x="-670.288" width="1368.576" fill="#101b26" y="-238.119995" height="570.239978" fill-opacity="1"/></g></g></g></g></g></g><g clip-path="url(#3f2b6e1570)"><g clip-path="url(#ed3bb43b82)"><g transform="matrix(1, 0, 0, 1, 461, 34)"><g clip-path="url(#3c6b53c322)"><g clip-path="url(#cd4c377d73)"><g clip-path="url(#8b3e1abf2e)"><rect x="-749.288" width="1368.576" fill="#43c8f5" y="-238.119995" height="570.239978" fill-opacity="1"/></g></g></g></g></g></g><g clip-path="url(#3235ade20e)"><g clip-path="url(#02344f75dc)"><g transform="matrix(1, 0, 0, 1, 461, 6)"><g clip-path="url(#0473fb2d8e)"><g clip-path="url(#b058702633)"><g clip-path="url(#10cf7316f3)"><rect x="-749.288" width="1368.576" fill="#43c8f5" y="-210.119995" height="570.239978" fill-opacity="1"/></g></g></g></g></g></g><g clip-path="url(#5f9bbc9c4e)"><g clip-path="url(#499a110389)"><g transform="matrix(1, 0, 0, 1, 489, 34)"><g clip-path="url(#819551fca9)"><g clip-path="url(#9559f4eb0d)"><g clip-path="url(#923fe4c7b3)"><rect x="-777.288" width="1368.576" fill="#43c8f5" y="-238.119995" height="570.239978" fill-opacity="1"/></g></g></g></g></g></g><g clip-path="url(#4362a70d3a)"><g clip-path="url(#2873b611d1)"><g transform="matrix(1, 0, 0, 1, 615, 34)"><g clip-path="url(#c90d9f77a4)"><g clip-path="url(#aaefc43553)"><g clip-path="url(#bedbc78d7b)"><rect x="-903.288" width="1368.576" fill="#43c8f5" y="-238.119995" height="570.239978" fill-opacity="1"/></g></g></g></g></g></g><g clip-path="url(#7cdbc8e815)"><g clip-path="url(#6821b87e4f)"><g transform="matrix(1, 0, 0, 1, 704, 6)"><g clip-path="url(#bc68861e2a)"><g clip-path="url(#b5d181ef1b)"><g clip-path="url(#5117b49039)"><rect x="-992.288" width="1368.576" fill="#43c8f5" y="-210.119995" height="570.239978" fill-opacity="1"/></g></g></g></g></g></g></g></g></svg>